<?xml version="1.0" encoding="UTF-8"?>
<svg xmlns="http://www.w3.org/2000/svg" xmlns:xlink="http://www.w3.org/1999/xlink" width="96pt" height="76pt" viewBox="0 0 96 76" version="1.1">
<g id="surface1">
<path style=" stroke:none;fill-rule:nonzero;fill:rgb(13.72549%,12.156863%,12.54902%);fill-opacity:1;" d="M 64.933594 14.664062 C 62.867188 14.664062 61.191406 16.183594 61.191406 18.0625 C 61.191406 19.941406 62.867188 21.460938 64.933594 21.460938 C 66.996094 21.460938 68.671875 19.941406 68.671875 18.0625 C 68.671875 16.183594 66.996094 14.664062 64.933594 14.664062 Z M 64.933594 20.984375 C 63.15625 20.984375 61.71875 19.679688 61.71875 18.066406 C 61.71875 16.453125 63.15625 15.144531 64.933594 15.144531 C 66.707031 15.144531 68.144531 16.453125 68.144531 18.066406 C 68.148438 19.675781 66.707031 20.984375 64.933594 20.984375 Z M 64.933594 20.984375 "/>
<path style=" stroke:none;fill-rule:nonzero;fill:rgb(13.72549%,12.156863%,12.54902%);fill-opacity:1;" d="M 63.40625 19.847656 L 63.40625 16.335938 L 65.121094 16.335938 C 65.46875 16.335938 65.726562 16.367188 65.90625 16.429688 C 66.085938 16.492188 66.230469 16.605469 66.335938 16.761719 C 66.445312 16.921875 66.5 17.097656 66.5 17.292969 C 66.5 17.542969 66.410156 17.753906 66.230469 17.921875 C 66.054688 18.09375 65.78125 18.203125 65.410156 18.25 C 65.542969 18.308594 65.648438 18.367188 65.71875 18.425781 C 65.867188 18.550781 66.007812 18.707031 66.140625 18.890625 L 66.816406 19.847656 L 66.171875 19.847656 L 65.660156 19.117188 C 65.507812 18.90625 65.386719 18.746094 65.289062 18.632812 C 65.191406 18.519531 65.109375 18.445312 65.03125 18.398438 C 64.957031 18.351562 64.878906 18.320312 64.800781 18.304688 C 64.742188 18.292969 64.648438 18.289062 64.515625 18.289062 L 63.921875 18.289062 L 63.921875 19.847656 Z M 63.917969 17.886719 L 65.019531 17.886719 C 65.253906 17.886719 65.4375 17.867188 65.566406 17.824219 C 65.699219 17.78125 65.800781 17.707031 65.867188 17.613281 C 65.9375 17.515625 65.972656 17.410156 65.972656 17.296875 C 65.972656 17.132812 65.90625 16.996094 65.773438 16.886719 C 65.640625 16.78125 65.429688 16.726562 65.144531 16.726562 L 63.921875 16.726562 L 63.921875 17.886719 Z M 63.917969 17.886719 "/>
<path style=" stroke:none;fill-rule:nonzero;fill:rgb(13.72549%,12.156863%,12.54902%);fill-opacity:1;" d="M 38.976562 16.421875 L 39.90625 17.695312 L 41.523438 17.285156 L 40.480469 18.480469 L 41.410156 19.753906 L 39.835938 19.21875 L 38.789062 20.417969 L 38.863281 18.890625 L 37.285156 18.359375 L 38.90625 17.949219 Z M 38.976562 16.421875 "/>
<path style=" stroke:none;fill-rule:nonzero;fill:rgb(13.72549%,12.156863%,12.54902%);fill-opacity:1;" d="M 44.925781 15.9375 L 45.382812 17.40625 L 47.058594 17.464844 L 45.664062 18.3125 L 46.121094 19.785156 L 44.796875 18.839844 L 43.402344 19.6875 L 43.984375 18.253906 L 42.664062 17.308594 L 44.34375 17.371094 Z M 44.925781 15.9375 "/>
<path style=" stroke:none;fill-rule:nonzero;fill:rgb(13.72549%,12.156863%,12.54902%);fill-opacity:1;" d="M 50.75 17.152344 L 50.671875 18.679688 L 52.242188 19.21875 L 50.621094 19.625 L 50.546875 21.148438 L 49.621094 19.871094 L 48.003906 20.277344 L 49.050781 19.082031 L 48.125 17.808594 L 49.699219 18.347656 Z M 50.75 17.152344 "/>
<path style=" stroke:none;fill-rule:nonzero;fill:rgb(13.72549%,12.156863%,12.54902%);fill-opacity:1;" d="M 55.890625 20.027344 L 55.28125 21.449219 L 56.578125 22.417969 L 54.90625 22.332031 L 54.292969 23.75 L 53.867188 22.273438 L 52.191406 22.1875 L 53.605469 21.363281 L 53.179688 19.882812 L 54.476562 20.851562 Z M 55.890625 20.027344 "/>
<path style=" stroke:none;fill-rule:nonzero;fill:rgb(13.72549%,12.156863%,12.54902%);fill-opacity:1;" d="M 59.722656 24.171875 L 58.664062 25.359375 L 59.574219 26.640625 L 58.007812 26.089844 L 56.949219 27.277344 L 57.039062 25.753906 L 55.472656 25.203125 L 57.097656 24.8125 L 57.1875 23.285156 L 58.097656 24.566406 Z M 59.722656 24.171875 "/>
<path style=" stroke:none;fill-rule:nonzero;fill:rgb(13.72549%,12.156863%,12.54902%);fill-opacity:1;" d="M 46.128906 46.472656 C 37.285156 46.472656 30.117188 39.953125 30.117188 31.914062 C 30.117188 26.472656 33.203125 21.726562 37.9375 19.234375 C 31.546875 21.464844 27.011719 27.097656 27.011719 33.691406 C 27.011719 42.242188 34.640625 49.175781 44.046875 49.175781 C 50.910156 49.175781 56.675781 45.25 59.167969 39.976562 C 56.425781 43.894531 51.699219 46.472656 46.128906 46.472656 Z M 46.128906 46.472656 "/>
<path style=" stroke:none;fill-rule:nonzero;fill:rgb(13.72549%,12.156863%,12.54902%);fill-opacity:1;" d="M 50.882812 27.875 L 50.882812 28.613281 C 50.882812 28.613281 52.933594 28.429688 52.378906 30.128906 C 51.773438 31.726562 50.097656 36.203125 50.097656 36.203125 C 50.097656 36.203125 49.972656 36.6875 49.785156 36.195312 C 49.597656 35.699219 47.046875 29.402344 47.046875 29.402344 C 47.046875 29.402344 46.859375 28.761719 47.582031 28.652344 C 48.152344 28.652344 48.738281 28.652344 48.738281 28.652344 L 48.738281 27.925781 L 42.109375 27.917969 L 42.109375 28.667969 L 43.28125 28.667969 C 43.28125 28.667969 43.921875 28.824219 44.097656 29.300781 C 44.125 29.382812 44.269531 29.742188 44.488281 30.28125 L 43.496094 32.78125 L 42.148438 36.171875 C 42.148438 36.171875 41.972656 36.742188 41.777344 36.148438 C 41.511719 35.453125 38.988281 29.316406 38.988281 29.316406 C 38.988281 29.316406 38.910156 28.824219 39.371094 28.691406 C 39.738281 28.691406 40.347656 28.691406 40.347656 28.691406 L 40.347656 27.972656 L 34.605469 27.972656 L 34.605469 28.703125 L 35.382812 28.703125 C 35.382812 28.703125 35.824219 28.75 36.070312 29.363281 C 36.316406 29.972656 40.5 40.109375 40.5 40.109375 L 41.648438 40.109375 L 45.046875 31.664062 C 46.339844 34.855469 48.484375 40.109375 48.484375 40.109375 L 49.636719 40.109375 L 53.667969 29.710938 C 53.667969 29.710938 54.066406 28.71875 54.996094 28.644531 C 55.316406 28.644531 55.53125 28.644531 55.53125 28.644531 L 55.53125 27.871094 L 50.882812 27.871094 Z M 50.882812 27.875 "/>
<path style=" stroke:none;fill-rule:nonzero;fill:rgb(13.72549%,12.156863%,12.54902%);fill-opacity:1;" d="M 68.445312 27.875 L 55.976562 27.875 L 55.636719 32.363281 L 56.5 32.363281 C 56.5 32.363281 57.007812 28.242188 60.265625 28.601562 C 60.671875 28.921875 60.683594 28.921875 60.683594 28.921875 L 60.71875 38.605469 C 60.71875 38.605469 60.648438 38.976562 60.128906 39.109375 C 59.515625 39.109375 58.417969 39.109375 58.417969 39.109375 L 58.394531 39.820312 L 66.035156 39.820312 L 66.011719 39.109375 C 66.011719 39.109375 64.914062 39.109375 64.300781 39.109375 C 63.78125 38.976562 63.714844 38.605469 63.714844 38.605469 L 63.746094 28.921875 C 63.746094 28.921875 63.757812 28.921875 64.167969 28.601562 C 67.417969 28.242188 67.929688 32.363281 67.929688 32.363281 L 68.792969 32.363281 Z M 68.445312 27.875 "/>
<path style=" stroke:none;fill-rule:nonzero;fill:rgb(0%,0%,0%);fill-opacity:1;" d="M 12.335938 53.683594 L 10.941406 53.683594 L 10.941406 53.222656 L 14.300781 53.222656 L 14.300781 53.683594 L 12.910156 53.683594 L 12.910156 56.917969 L 12.335938 56.917969 Z M 12.335938 53.683594 "/>
<path style=" stroke:none;fill-rule:nonzero;fill:rgb(0%,0%,0%);fill-opacity:1;" d="M 18.945312 53.222656 L 18.945312 56.917969 L 18.363281 56.917969 L 18.363281 55.269531 L 16.03125 55.269531 L 16.03125 56.917969 L 15.453125 56.917969 L 15.453125 53.222656 L 16.03125 53.222656 L 16.03125 54.8125 L 18.363281 54.8125 L 18.363281 53.222656 Z M 18.945312 53.222656 "/>
<path style=" stroke:none;fill-rule:nonzero;fill:rgb(0%,0%,0%);fill-opacity:1;" d="M 21.097656 56.535156 C 20.796875 56.253906 20.644531 55.847656 20.644531 55.320312 L 20.644531 53.222656 L 21.222656 53.222656 L 21.222656 55.300781 C 21.222656 56.09375 21.601562 56.488281 22.363281 56.488281 C 22.738281 56.488281 23.023438 56.390625 23.214844 56.195312 C 23.414062 56.003906 23.511719 55.703125 23.511719 55.300781 L 23.511719 53.222656 L 24.074219 53.222656 L 24.074219 55.324219 C 24.074219 55.855469 23.921875 56.261719 23.621094 56.539062 C 23.320312 56.820312 22.898438 56.960938 22.355469 56.960938 C 21.820312 56.957031 21.398438 56.816406 21.097656 56.535156 Z M 23.792969 53.222656 L 23.898438 53.222656 C 24.023438 53.222656 24.117188 53.191406 24.179688 53.128906 C 24.238281 53.066406 24.273438 52.980469 24.273438 52.882812 C 24.273438 52.753906 24.230469 52.644531 24.15625 52.546875 L 24.507812 52.425781 C 24.617188 52.558594 24.671875 52.714844 24.671875 52.894531 C 24.671875 53.113281 24.605469 53.285156 24.46875 53.414062 C 24.328125 53.546875 24.140625 53.609375 23.898438 53.609375 L 23.792969 53.609375 Z M 23.792969 53.222656 "/>
<path style=" stroke:none;fill-rule:nonzero;fill:rgb(0%,0%,0%);fill-opacity:1;" d="M 29.597656 54.210938 C 29.746094 54.472656 29.816406 54.757812 29.816406 55.066406 C 29.816406 55.425781 29.722656 55.75 29.535156 56.035156 C 29.351562 56.324219 29.09375 56.546875 28.761719 56.710938 C 28.433594 56.875 28.066406 56.957031 27.660156 56.957031 C 27.25 56.957031 26.878906 56.875 26.554688 56.710938 C 26.222656 56.550781 25.964844 56.324219 25.777344 56.035156 C 25.589844 55.746094 25.496094 55.425781 25.496094 55.066406 C 25.496094 54.707031 25.589844 54.386719 25.777344 54.097656 C 25.964844 53.8125 26.226562 53.589844 26.558594 53.421875 C 26.890625 53.261719 27.265625 53.179688 27.679688 53.179688 C 27.855469 53.179688 28.074219 53.191406 28.328125 53.222656 C 28.542969 53.242188 28.699219 53.253906 28.792969 53.253906 C 28.96875 53.253906 29.105469 53.21875 29.199219 53.15625 C 29.296875 53.089844 29.34375 52.992188 29.34375 52.867188 C 29.34375 52.757812 29.304688 52.648438 29.226562 52.539062 L 29.574219 52.414062 C 29.683594 52.558594 29.738281 52.714844 29.738281 52.886719 C 29.738281 53.082031 29.675781 53.238281 29.546875 53.355469 C 29.417969 53.472656 29.238281 53.546875 29 53.570312 C 29.257812 53.738281 29.453125 53.949219 29.597656 54.210938 Z M 28.464844 56.300781 C 28.703125 56.179688 28.890625 56.011719 29.03125 55.792969 C 29.167969 55.578125 29.238281 55.335938 29.238281 55.066406 C 29.238281 54.800781 29.167969 54.558594 29.03125 54.34375 C 28.894531 54.128906 28.703125 53.957031 28.464844 53.835938 C 28.226562 53.714844 27.957031 53.652344 27.664062 53.652344 C 27.367188 53.652344 27.097656 53.714844 26.855469 53.835938 C 26.609375 53.957031 26.421875 54.128906 26.285156 54.34375 C 26.148438 54.558594 26.078125 54.800781 26.078125 55.066406 C 26.078125 55.332031 26.148438 55.574219 26.285156 55.792969 C 26.421875 56.011719 26.609375 56.179688 26.855469 56.300781 C 27.097656 56.425781 27.367188 56.488281 27.664062 56.488281 C 27.957031 56.488281 28.226562 56.425781 28.464844 56.300781 Z M 28.464844 56.300781 "/>
<path style=" stroke:none;fill-rule:nonzero;fill:rgb(0%,0%,0%);fill-opacity:1;" d="M 34.714844 53.222656 L 34.714844 56.917969 L 34.238281 56.917969 L 31.800781 54.164062 L 31.800781 56.917969 L 31.222656 56.917969 L 31.222656 53.222656 L 31.695312 53.222656 L 34.132812 55.976562 L 34.132812 53.222656 Z M 34.714844 53.222656 "/>
<path style=" stroke:none;fill-rule:nonzero;fill:rgb(0%,0%,0%);fill-opacity:1;" d="M 39.261719 55.046875 L 39.820312 55.046875 L 39.820312 56.488281 C 39.617188 56.640625 39.382812 56.757812 39.117188 56.835938 C 38.851562 56.917969 38.570312 56.960938 38.28125 56.960938 C 37.871094 56.960938 37.5 56.878906 37.171875 56.714844 C 36.84375 56.550781 36.585938 56.328125 36.398438 56.039062 C 36.210938 55.75 36.117188 55.429688 36.117188 55.070312 C 36.117188 54.710938 36.210938 54.386719 36.398438 54.097656 C 36.585938 53.8125 36.84375 53.585938 37.175781 53.421875 C 37.507812 53.261719 37.878906 53.179688 38.292969 53.179688 C 38.617188 53.179688 38.914062 53.230469 39.179688 53.324219 C 39.441406 53.421875 39.667969 53.5625 39.851562 53.75 L 39.496094 54.074219 C 39.171875 53.789062 38.777344 53.648438 38.316406 53.648438 C 38.007812 53.648438 37.726562 53.707031 37.480469 53.832031 C 37.238281 53.953125 37.042969 54.121094 36.90625 54.335938 C 36.765625 54.550781 36.695312 54.796875 36.695312 55.066406 C 36.695312 55.332031 36.765625 55.574219 36.90625 55.792969 C 37.042969 56.011719 37.238281 56.179688 37.480469 56.300781 C 37.726562 56.425781 38.003906 56.488281 38.308594 56.488281 C 38.675781 56.488281 38.992188 56.40625 39.261719 56.25 Z M 39.261719 55.046875 "/>
<path style=" stroke:none;fill-rule:nonzero;fill:rgb(0%,0%,0%);fill-opacity:1;" d="M 47.011719 53.222656 L 47.011719 56.917969 L 46.433594 56.917969 L 46.433594 55.269531 L 44.101562 55.269531 L 44.101562 56.917969 L 43.523438 56.917969 L 43.523438 53.222656 L 44.101562 53.222656 L 44.101562 54.8125 L 46.433594 54.8125 L 46.433594 53.222656 Z M 47.011719 53.222656 "/>
<path style=" stroke:none;fill-rule:nonzero;fill:rgb(0%,0%,0%);fill-opacity:1;" d="M 48.75 53.222656 L 49.328125 53.222656 L 49.328125 56.917969 L 48.75 56.917969 Z M 48.75 53.222656 "/>
<path style=" stroke:none;fill-rule:nonzero;fill:rgb(0%,0%,0%);fill-opacity:1;" d="M 54.011719 56.457031 L 54.011719 56.914062 L 51.066406 56.914062 L 51.066406 53.222656 L 53.929688 53.222656 L 53.929688 53.683594 L 51.644531 53.683594 L 51.644531 54.816406 L 53.679688 54.816406 L 53.679688 55.265625 L 51.644531 55.265625 L 51.644531 56.457031 Z M 53.039062 52.921875 L 52.503906 52.515625 L 51.972656 52.921875 L 51.46875 52.921875 L 52.242188 52.234375 L 52.773438 52.234375 L 53.546875 52.921875 Z M 52.351562 57.875 C 52.292969 57.824219 52.265625 57.761719 52.265625 57.6875 C 52.265625 57.609375 52.292969 57.542969 52.351562 57.492188 C 52.410156 57.4375 52.476562 57.414062 52.558594 57.414062 C 52.640625 57.414062 52.710938 57.4375 52.769531 57.492188 C 52.828125 57.542969 52.855469 57.609375 52.855469 57.6875 C 52.855469 57.761719 52.828125 57.828125 52.769531 57.875 C 52.710938 57.925781 52.640625 57.949219 52.558594 57.949219 C 52.480469 57.949219 52.410156 57.925781 52.351562 57.875 Z M 52.351562 57.875 "/>
<path style=" stroke:none;fill-rule:nonzero;fill:rgb(0%,0%,0%);fill-opacity:1;" d="M 55.886719 56.535156 C 55.585938 56.253906 55.433594 55.847656 55.433594 55.320312 L 55.433594 53.222656 L 56.011719 53.222656 L 56.011719 55.300781 C 56.011719 56.09375 56.390625 56.488281 57.152344 56.488281 C 57.527344 56.488281 57.8125 56.390625 58.007812 56.195312 C 58.203125 56.003906 58.300781 55.703125 58.300781 55.300781 L 58.300781 53.222656 L 58.863281 53.222656 L 58.863281 55.324219 C 58.863281 55.855469 58.714844 56.261719 58.410156 56.539062 C 58.109375 56.820312 57.6875 56.960938 57.144531 56.960938 C 56.609375 56.957031 56.1875 56.816406 55.886719 56.535156 Z M 55.886719 56.535156 "/>
<path style=" stroke:none;fill-rule:nonzero;fill:rgb(0%,0%,0%);fill-opacity:1;" d="M 62.105469 54.824219 L 64.429688 54.824219 L 64.429688 55.242188 L 62.105469 55.242188 Z M 62.699219 53.222656 L 64.410156 53.222656 C 64.839844 53.222656 65.21875 53.300781 65.550781 53.457031 C 65.882812 53.613281 66.140625 53.828125 66.328125 54.109375 C 66.511719 54.390625 66.601562 54.707031 66.601562 55.070312 C 66.601562 55.433594 66.507812 55.753906 66.328125 56.035156 C 66.140625 56.3125 65.882812 56.53125 65.550781 56.6875 C 65.21875 56.839844 64.835938 56.917969 64.410156 56.917969 L 62.699219 56.917969 Z M 64.375 56.457031 C 64.703125 56.457031 64.992188 56.398438 65.242188 56.28125 C 65.492188 56.164062 65.6875 56.003906 65.820312 55.792969 C 65.957031 55.585938 66.023438 55.34375 66.023438 55.066406 C 66.023438 54.792969 65.957031 54.550781 65.820312 54.34375 C 65.6875 54.136719 65.492188 53.972656 65.242188 53.855469 C 64.992188 53.742188 64.703125 53.683594 64.375 53.683594 L 63.277344 53.683594 L 63.277344 56.457031 Z M 64.375 56.457031 "/>
<path style=" stroke:none;fill-rule:nonzero;fill:rgb(0%,0%,0%);fill-opacity:1;" d="M 68.730469 56.710938 C 68.402344 56.550781 68.144531 56.324219 67.957031 56.035156 C 67.769531 55.746094 67.675781 55.425781 67.675781 55.066406 C 67.675781 54.710938 67.769531 54.390625 67.957031 54.101562 C 68.144531 53.8125 68.402344 53.585938 68.730469 53.421875 C 69.0625 53.261719 69.429688 53.179688 69.839844 53.179688 C 70.246094 53.179688 70.613281 53.261719 70.941406 53.421875 C 71.273438 53.585938 71.527344 53.8125 71.714844 54.097656 C 71.898438 54.386719 71.996094 54.707031 71.996094 55.066406 C 71.996094 55.425781 71.902344 55.75 71.714844 56.035156 C 71.53125 56.324219 71.273438 56.546875 70.941406 56.710938 C 70.613281 56.875 70.246094 56.957031 69.839844 56.957031 C 69.429688 56.957031 69.0625 56.875 68.730469 56.710938 Z M 70.644531 56.300781 C 70.882812 56.179688 71.070312 56.011719 71.207031 55.792969 C 71.34375 55.578125 71.410156 55.335938 71.410156 55.066406 C 71.410156 54.800781 71.34375 54.558594 71.207031 54.34375 C 71.070312 54.128906 70.882812 53.957031 70.644531 53.835938 C 70.40625 53.714844 70.136719 53.652344 69.839844 53.652344 C 69.542969 53.652344 69.273438 53.714844 69.03125 53.835938 C 68.789062 53.957031 68.597656 54.128906 68.460938 54.34375 C 68.324219 54.558594 68.253906 54.800781 68.253906 55.066406 C 68.253906 55.332031 68.324219 55.574219 68.460938 55.792969 C 68.597656 56.011719 68.789062 56.179688 69.03125 56.300781 C 69.273438 56.425781 69.542969 56.488281 69.839844 56.488281 C 70.136719 56.488281 70.40625 56.425781 70.644531 56.300781 Z M 70.367188 52.921875 L 69.839844 52.628906 L 69.3125 52.921875 L 68.800781 52.921875 L 69.578125 52.394531 L 70.101562 52.394531 L 70.878906 52.921875 Z M 69.902344 51.863281 L 70.535156 51.863281 L 71.214844 52.460938 L 70.761719 52.460938 Z M 69.902344 51.863281 "/>
<path style=" stroke:none;fill-rule:nonzero;fill:rgb(0%,0%,0%);fill-opacity:1;" d="M 75.472656 53.222656 L 77.183594 53.222656 C 77.613281 53.222656 77.996094 53.300781 78.328125 53.457031 C 78.660156 53.613281 78.917969 53.828125 79.101562 54.109375 C 79.285156 54.390625 79.378906 54.707031 79.378906 55.070312 C 79.378906 55.433594 79.285156 55.753906 79.101562 56.035156 C 78.917969 56.3125 78.660156 56.53125 78.328125 56.6875 C 77.996094 56.839844 77.613281 56.917969 77.183594 56.917969 L 75.472656 56.917969 Z M 77.152344 56.457031 C 77.480469 56.457031 77.769531 56.398438 78.019531 56.28125 C 78.269531 56.164062 78.460938 56.003906 78.597656 55.792969 C 78.730469 55.585938 78.800781 55.34375 78.800781 55.066406 C 78.800781 54.792969 78.730469 54.550781 78.597656 54.34375 C 78.460938 54.136719 78.269531 53.972656 78.019531 53.855469 C 77.769531 53.742188 77.480469 53.683594 77.152344 53.683594 L 76.054688 53.683594 L 76.054688 56.457031 Z M 77.152344 56.457031 "/>
<path style=" stroke:none;fill-rule:nonzero;fill:rgb(0%,0%,0%);fill-opacity:1;" d="M 83.3125 55.992188 L 81.15625 55.992188 L 80.710938 56.917969 L 80.113281 56.917969 L 81.949219 53.222656 L 82.527344 53.222656 L 84.371094 56.917969 L 83.761719 56.917969 Z M 83.109375 55.570312 L 82.234375 53.761719 L 81.359375 55.570312 Z M 83.109375 55.570312 "/>
<path style=" stroke:none;fill-rule:nonzero;fill:rgb(0%,0%,0%);fill-opacity:1;" d="M 30.011719 60.609375 L 28.550781 63.628906 L 28.082031 63.628906 L 26.621094 60.609375 L 27.132812 60.609375 L 28.332031 63.089844 L 29.535156 60.609375 Z M 30.011719 60.609375 "/>
<path style=" stroke:none;fill-rule:nonzero;fill:rgb(0%,0%,0%);fill-opacity:1;" d="M 33.023438 60.609375 L 33.5 60.609375 L 33.5 63.628906 L 33.023438 63.628906 Z M 33.023438 60.609375 "/>
<path style=" stroke:none;fill-rule:nonzero;fill:rgb(0%,0%,0%);fill-opacity:1;" d="M 39.5 63.253906 L 39.5 63.628906 L 37.089844 63.628906 L 37.089844 60.609375 L 39.433594 60.609375 L 39.433594 60.984375 L 37.5625 60.984375 L 37.5625 61.914062 L 39.230469 61.914062 L 39.230469 62.277344 L 37.5625 62.277344 L 37.5625 63.253906 Z M 38.703125 60.359375 L 38.265625 60.027344 L 37.828125 60.359375 L 37.414062 60.359375 L 38.042969 59.800781 L 38.480469 59.800781 L 39.113281 60.359375 Z M 38.140625 64.414062 C 38.09375 64.371094 38.070312 64.320312 38.070312 64.257812 C 38.070312 64.195312 38.09375 64.140625 38.140625 64.097656 C 38.1875 64.054688 38.246094 64.03125 38.3125 64.03125 C 38.378906 64.03125 38.4375 64.054688 38.484375 64.097656 C 38.53125 64.140625 38.554688 64.191406 38.554688 64.257812 C 38.554688 64.320312 38.53125 64.371094 38.484375 64.414062 C 38.4375 64.453125 38.378906 64.472656 38.3125 64.472656 C 38.246094 64.472656 38.1875 64.453125 38.140625 64.414062 Z M 38.140625 64.414062 "/>
<path style=" stroke:none;fill-rule:nonzero;fill:rgb(0%,0%,0%);fill-opacity:1;" d="M 43.523438 60.980469 L 42.382812 60.980469 L 42.382812 60.605469 L 45.128906 60.605469 L 45.128906 60.980469 L 43.992188 60.980469 L 43.992188 63.625 L 43.523438 63.625 Z M 43.523438 60.980469 "/>
<path style=" stroke:none;fill-rule:nonzero;fill:rgb(0%,0%,0%);fill-opacity:1;" d="M 54.964844 60.609375 L 54.964844 63.628906 L 54.574219 63.628906 L 52.582031 61.375 L 52.582031 63.628906 L 52.105469 63.628906 L 52.105469 60.609375 L 52.496094 60.609375 L 54.492188 62.863281 L 54.492188 60.609375 Z M 54.964844 60.609375 "/>
<path style=" stroke:none;fill-rule:nonzero;fill:rgb(0%,0%,0%);fill-opacity:1;" d="M 60.671875 62.875 L 58.90625 62.875 L 58.539062 63.628906 L 58.050781 63.628906 L 59.558594 60.609375 L 60.027344 60.609375 L 61.535156 63.628906 L 61.035156 63.628906 Z M 60.507812 62.527344 L 59.789062 61.050781 L 59.070312 62.527344 Z M 60.507812 62.527344 "/>
<path style=" stroke:none;fill-rule:nonzero;fill:rgb(0%,0%,0%);fill-opacity:1;" d="M 67.703125 63.628906 L 67.699219 61.429688 L 66.5 63.261719 L 66.28125 63.261719 L 65.078125 61.441406 L 65.078125 63.628906 L 64.625 63.628906 L 64.625 60.609375 L 65.011719 60.609375 L 66.402344 62.730469 L 67.765625 60.609375 L 68.15625 60.609375 L 68.164062 63.628906 Z M 67.703125 63.628906 "/>
</g>
</svg>
